<?xml version="1.0" encoding="UTF-8" standalone="no"?>
<svg xmlns:dc="http://purl.org/dc/elements/1.1/" xmlns:cc="http://creativecommons.org/ns#" xmlns:rdf="http://www.w3.org/1999/02/22-rdf-syntax-ns#" xmlns:svg="http://www.w3.org/2000/svg" xmlns="http://www.w3.org/2000/svg" xmlns:sodipodi="http://sodipodi.sourceforge.net/DTD/sodipodi-0.dtd" xmlns:inkscape="http://www.inkscape.org/namespaces/inkscape" width="48.73822mm" height="19.0306mm" viewBox="0 0 48.73822 19.0306" version="1.1" id="svg1463" inkscape:version="1.0.1 (3bc2e813f5, 2020-09-07)" sodipodi:docname="Logo Institut Mines-Télécom.svg">
  <defs id="defs1457">
    <clipPath clipPathUnits="userSpaceOnUse" id="clipPath889">
      <path d="M 0,0 H 595.276 V 841.89 H 0 Z" id="path887"/>
    </clipPath>
    <clipPath clipPathUnits="userSpaceOnUse" id="clipPath927">
      <path d="M 0,0 H 595.276 V 841.89 H 0 Z" id="path925"/>
    </clipPath>
    <clipPath clipPathUnits="userSpaceOnUse" id="clipPath945">
      <path d="M 0,0 H 595.276 V 841.89 H 0 Z" id="path943"/>
    </clipPath>
  </defs>
  <sodipodi:namedview id="base" pagecolor="#ffffff" bordercolor="#666666" borderopacity="1.0" inkscape:pageopacity="0.0" inkscape:pageshadow="2" inkscape:zoom="3.959798" inkscape:cx="85.802236" inkscape:cy="36.175712" inkscape:document-units="mm" inkscape:current-layer="layer1" inkscape:document-rotation="0" showgrid="false" fit-margin-top="0" fit-margin-left="0" fit-margin-right="0" fit-margin-bottom="0" inkscape:window-width="1600" inkscape:window-height="837" inkscape:window-x="-8" inkscape:window-y="-8" inkscape:window-maximized="1"/>
  <metadata id="metadata1460">
    <rdf:RDF>
      <cc:Work rdf:about="">
        <dc:format>image/svg+xml</dc:format>
        <dc:type rdf:resource="http://purl.org/dc/dcmitype/StillImage"/>
        <dc:title/>
      </cc:Work>
    </rdf:RDF>
  </metadata>
  <g inkscape:label="Calque 1" inkscape:groupmode="layer" id="layer1" transform="translate(-25.523748,-113.70492)">
    <g id="g2302">
      <g id="g2227">
        <path d="m 39.448592,113.70502 -13.924844,13.9259 v -13.9259 z" style="fill:#40c0d8;fill-opacity:1;fill-rule:nonzero;stroke:none;stroke-width:0.352778" id="path871"/>
        <path d="m 53.374213,113.70502 v 13.9259 h -13.92555 v -13.9259 l 6.962775,6.96277 z" style="fill:#40c0d8;fill-opacity:1;fill-rule:nonzero;stroke:none;stroke-width:0.352778" id="path875"/>
        <path d="m 60.337123,127.63082 v -6.96277 h -6.962775 l 6.962775,-6.96313 h 13.924844 z" style="fill:#40c0d8;fill-opacity:1;fill-rule:nonzero;stroke:none;stroke-width:0.352778" id="path879"/>
      </g>
      <g id="g2262">
        <g id="g2203">
          <path d="m 25.523784,132.67918 h 0.671336 v -3.054 h -0.671336 z" style="fill:#40c0d8;fill-opacity:1;fill-rule:nonzero;stroke:none;stroke-width:0.352777" id="path881"/>
          <g id="g891" transform="matrix(0.35277777,0,0,-0.35277777,27.247279,130.4678)">
            <path d="m 0,0 v -0.873 h 0.037 c 0.436,0.729 1.186,1.043 1.915,1.043 1.924,0 2.292,-1.164 2.292,-2.583 V -6.268 H 2.522 v 3.54 c 0,1.125 -0.34,1.539 -1.104,1.539 -1.001,0 -1.333,-0.606 -1.333,-1.793 V -6.268 H -1.636 V 0 Z" style="fill:#40c0d8;fill-opacity:1;fill-rule:nonzero;stroke:none" id="path893"/>
          </g>
          <g id="g899" transform="matrix(0.35277777,0,0,-0.35277777,30.091479,132.33255)">
            <path d="m 0,0 c 0.323,0 1.127,0.119 1.127,0.8 0,0.258 -0.172,0.453 -0.515,0.582 -0.344,0.129 -0.822,0.259 -1.436,0.388 -1.051,0.236 -1.989,0.583 -1.989,1.673 0,1.592 1.372,2.013 2.728,2.013 1.408,0 2.639,-0.502 2.764,-2.001 H 1.042 C 1.035,4.139 0.383,4.304 -0.133,4.304 -0.534,4.304 -1.091,4.23 -1.091,3.722 -1.091,3.197 -0.302,3.039 0.145,2.946 0.589,2.854 1.168,2.727 1.594,2.582 2.362,2.322 2.849,1.823 2.849,1.031 c 0,-1.241 -0.865,-2.171 -2.861,-2.171 -1.548,0 -2.884,0.591 -2.946,2.195 h 1.637 C -1.321,0.236 -0.551,0 0,0" style="fill:#40c0d8;fill-opacity:1;fill-rule:nonzero;stroke:none" id="path901"/>
          </g>
          <g id="g907" transform="matrix(0.35277777,0,0,-0.35277777,32.614863,130.4678)">
            <path d="m 0,0 v -1.152 h -1.261 v -3.103 c 0,-0.676 0.183,-0.812 1.261,-0.679 v -1.334 c -0.316,-0.053 -0.657,-0.061 -1.006,-0.061 -1.098,0 -1.976,0.238 -1.976,1.479 v 3.698 H -4.025 V 0 h 1.043 v 1.879 h 1.721 V 0 Z" style="fill:#40c0d8;fill-opacity:1;fill-rule:nonzero;stroke:none" id="path909"/>
          </g>
          <g id="g911" transform="matrix(0.35277777,0,0,-0.35277777,35.19381,130.4678)">
            <path d="m 0,0 v -1.152 h -1.261 v -3.103 c 0,-0.676 0.183,-0.812 1.261,-0.679 v -1.334 c -0.316,-0.053 -0.657,-0.061 -1.006,-0.061 -1.098,0 -1.976,0.238 -1.976,1.479 v 3.698 H -4.025 V 0 h 1.043 v 1.879 h 1.721 V 0 Z" style="fill:#40c0d8;fill-opacity:1;fill-rule:nonzero;stroke:none" id="path913"/>
          </g>
          <g id="g915" transform="matrix(0.35277777,0,0,-0.35277777,39.16316,130.4678)">
            <path d="m 0,0 v -1.152 h -1.261 v -3.103 c 0,-0.676 0.183,-0.812 1.261,-0.679 v -1.334 c -0.316,-0.053 -0.657,-0.061 -1.006,-0.061 -1.098,0 -1.976,0.238 -1.976,1.479 v 3.698 H -4.025 V 0 h 1.043 v 1.879 h 1.721 V 0 Z" style="fill:#40c0d8;fill-opacity:1;fill-rule:nonzero;stroke:none" id="path917"/>
          </g>
          <path d="m 32.944114,129.62518 h 0.60713 v 0.50059 h -0.60713 z m 0.60713,3.054 h -0.60713 v -2.21122 h 0.60713 z" style="fill:#40c0d8;fill-opacity:1;fill-rule:nonzero;stroke:none;stroke-width:0.352777" id="path919"/>
          <g id="g929" transform="matrix(0.35277777,0,0,-0.35277777,36.960662,132.67901)">
            <path d="m 0,0 v 0.873 h -0.036 c -0.43,-0.716 -1.181,-1.031 -1.916,-1.031 -1.594,0 -2.291,0.731 -2.291,2.571 v 3.855 h 1.722 v -3.54 c 0,-0.982 0.24,-1.54 1.103,-1.54 1.058,0 1.333,0.69 1.333,1.794 V 6.268 H 1.637 V 0 Z" style="fill:#40c0d8;fill-opacity:1;fill-rule:nonzero;stroke:none" id="path931"/>
          </g>
        </g>
        <g id="g2213">
          <g id="g895" transform="matrix(0.35277777,0,0,-0.35277777,45.997629,130.4678)">
            <path d="m 0,0 v -0.873 h 0.037 c 0.436,0.729 1.186,1.043 1.915,1.043 1.924,0 2.291,-1.164 2.291,-2.583 V -6.268 H 2.522 v 3.54 c 0,1.125 -0.34,1.539 -1.104,1.539 -1.001,0 -1.333,-0.606 -1.333,-1.793 V -6.268 H -1.637 V 0 Z" style="fill:#40c0d8;fill-opacity:1;fill-rule:nonzero;stroke:none" id="path897"/>
          </g>
          <g id="g903" transform="matrix(0.35277777,0,0,-0.35277777,51.245093,132.33255)">
            <path d="m 0,0 c 0.324,0 1.127,0.119 1.127,0.8 0,0.258 -0.171,0.453 -0.514,0.582 -0.344,0.129 -0.823,0.259 -1.437,0.388 -1.051,0.236 -1.988,0.583 -1.988,1.673 0,1.592 1.371,2.013 2.728,2.013 1.407,0 2.639,-0.502 2.764,-2.001 H 1.043 c -0.008,0.684 -0.659,0.849 -1.176,0.849 -0.4,0 -0.958,-0.074 -0.958,-0.582 0,-0.525 0.789,-0.683 1.237,-0.776 C 0.589,2.854 1.168,2.727 1.594,2.582 2.362,2.322 2.849,1.823 2.849,1.031 c 0,-1.241 -0.864,-2.171 -2.861,-2.171 -1.548,0 -2.884,0.591 -2.946,2.195 h 1.636 C -1.322,0.236 -0.55,0 0,0" style="fill:#40c0d8;fill-opacity:1;fill-rule:nonzero;stroke:none" id="path905"/>
          </g>
          <path d="m 41.549564,129.62514 0.714375,2.10009 h 0.0085 l 0.675569,-2.10009 h 0.945445 v 3.054 h -0.62865 v -2.16429 h -0.0088 l -0.748242,2.16429 h -0.517525 l -0.748241,-2.14278 h -0.0088 v 2.14278 h -0.62865 v -3.054 z" style="fill:#40c0d8;fill-opacity:1;fill-rule:nonzero;stroke:none;stroke-width:0.352778" id="path935"/>
          <path d="m 44.385044,129.62518 h 0.60749 v 0.50059 h -0.60749 z m 0.60749,3.054 h -0.60749 v -2.21122 h 0.60749 z" style="fill:#40c0d8;fill-opacity:1;fill-rule:nonzero;stroke:none;stroke-width:0.352777" id="path937"/>
          <g id="g947" transform="matrix(0.35277777,0,0,-0.35277777,48.948474,132.28115)">
            <path d="M 0,0 C 0.737,0 1.256,0.462 1.358,0.812 H 2.873 C 2.419,-0.595 1.458,-1.285 -0.06,-1.285 c -2.202,0 -3.201,1.584 -3.201,3.285 0,2.011 1.427,3.31 3.201,3.31 2.089,0 3.175,-1.741 3.042,-3.722 H -1.539 C -1.488,0.418 -0.911,0 0,0 m -0.109,4.012 c -0.907,0 -1.382,-0.594 -1.43,-1.333 h 2.8 c -0.148,0.8 -0.48,1.333 -1.37,1.333" style="fill:#40c0d8;fill-opacity:1;fill-rule:nonzero;stroke:none" id="path949"/>
          </g>
        </g>
        <path d="m 52.856304,131.77218 h 1.28728 v -0.51152 h -1.28728 z" style="fill:#40c0d8;fill-opacity:1;fill-rule:nonzero;stroke:none;stroke-width:0.352777" id="path951"/>
        <g id="g2222">
          <path d="m 54.067882,130.1898 v -0.5648 h 2.5019 v 0.5648 h -0.915106 v 2.4892 H 54.98334 v -2.4892 z" style="fill:#40c0d8;fill-opacity:1;fill-rule:nonzero;stroke:none;stroke-width:0.352778" id="path955"/>
          <path d="m 58.768154,132.67918 h 0.607132 v -3.054 h -0.607132 z" style="fill:#40c0d8;fill-opacity:1;fill-rule:nonzero;stroke:none;stroke-width:0.352777" id="path957"/>
          <path d="m 63.263102,130.86565 c -0.351367,0 -0.517525,0.33549 -0.517525,0.71826 0,0.33478 0.131939,0.69708 0.504825,0.69708 0.322792,0 0.448733,-0.21413 0.483306,-0.44873 h 0.585611 c -0.0822,0.60501 -0.49777,0.90241 -1.064684,0.90241 -0.690739,0 -1.116189,-0.49248 -1.116189,-1.12925 0,-0.69885 0.418748,-1.19768 1.128889,-1.19768 0.535164,0 1.00577,0.28223 1.039284,0.8382 h -0.594431 c -0.03986,-0.25364 -0.189794,-0.38029 -0.449086,-0.38029" style="fill:#40c0d8;fill-opacity:1;fill-rule:nonzero;stroke:none;stroke-width:0.352778" id="path969"/>
          <path d="m 65.683974,130.40782 c 0.663928,0 1.146175,0.42933 1.146175,1.16769 0,0.68192 -0.426156,1.15923 -1.146175,1.15923 -0.739422,0 -1.141942,-0.50447 -1.141942,-1.15923 0,-0.6865 0.432859,-1.16769 1.141942,-1.16769 m 0,1.87325 c 0.3683,0 0.538692,-0.28081 0.538692,-0.70556 0,-0.5027 -0.232834,-0.70978 -0.538692,-0.70978 -0.290336,0 -0.534811,0.19473 -0.534811,0.70978 0,0.38136 0.141817,0.70556 0.534811,0.70556" style="fill:#40c0d8;fill-opacity:1;fill-rule:nonzero;stroke:none;stroke-width:0.352778" id="path973"/>
          <path d="m 67.731883,130.46779 v 0.29951 h 0.0085 c 0.162277,-0.23178 0.389819,-0.35948 0.675922,-0.35948 0.307975,0 0.542925,0.12241 0.645583,0.36794 0.141817,-0.20955 0.371475,-0.36794 0.667103,-0.36794 0.442736,0 0.808567,0.18909 0.808567,0.79128 v 1.4799 h -0.607484 v -1.25307 c 0,-0.26846 -0.01094,-0.53869 -0.371827,-0.53869 -0.343959,0 -0.4064,0.29175 -0.4064,0.55986 v 1.2319 h -0.607131 v -1.24037 c 0,-0.28716 7.06e-4,-0.55139 -0.367947,-0.55139 -0.113595,0 -0.410634,0.0695 -0.410634,0.50871 v 1.28305 h -0.60713 v -2.21121 z" style="fill:#40c0d8;fill-opacity:1;fill-rule:nonzero;stroke:none;stroke-width:0.352778" id="path977"/>
          <path d="m 60.423411,132.14959 c 0.09137,0.0885 0.222603,0.13264 0.393347,0.13264 0.122767,0 0.228247,-0.0307 0.316795,-0.0921 0.08819,-0.0614 0.142522,-0.12629 0.16263,-0.19438 h 0.534459 c -0.08537,0.26493 -0.216606,0.45473 -0.393348,0.56868 -0.176741,0.1143 -0.390877,0.17109 -0.641702,0.17109 -0.17392,0 -0.330906,-0.0275 -0.470606,-0.0832 -0.1397,-0.0557 -0.257881,-0.13476 -0.354894,-0.23742 -0.09737,-0.10266 -0.171803,-0.22543 -0.224367,-0.36795 -0.05292,-0.14252 -0.07937,-0.29951 -0.07937,-0.4706 0,-0.1651 0.02716,-0.31927 0.08114,-0.46179 0.05433,-0.14287 0.131233,-0.26599 0.231069,-0.37042 0.09984,-0.10371 0.218722,-0.18591 0.357364,-0.24553 0.138289,-0.06 0.291395,-0.09 0.45967,-0.09 0.188383,0 0.352072,0.0363 0.491772,0.10901 0.140053,0.0727 0.254705,0.17039 0.344311,0.29281 0.08996,0.12312 0.154869,0.26282 0.194733,0.41945 0.04022,0.15698 0.05433,0.32103 0.04304,0.49212 H 60.27384 c 0.0085,0.1965 0.05821,0.33938 0.149578,0.42757 m 0.686506,-1.16346 c -0.07267,-0.0801 -0.183092,-0.11959 -0.331612,-0.11959 -0.09666,0 -0.177447,0.0162 -0.241652,0.049 -0.06385,0.0328 -0.115359,0.0734 -0.153811,0.12171 -0.03845,0.0487 -0.06562,0.0998 -0.08149,0.15417 -0.01552,0.054 -0.0247,0.10265 -0.02752,0.14534 h 0.988131 c -0.02857,-0.15381 -0.07937,-0.27093 -0.152047,-0.35066 m -0.207434,-1.66405 -0.453319,0.75706 h 0.423333 l 0.697442,-0.75706 z" style="fill:#40c0d8;fill-opacity:1;fill-rule:nonzero;stroke:none;stroke-width:0.352778" id="path981"/>
          <path d="m 56.967853,132.14959 c 0.09137,0.0885 0.222603,0.13264 0.393347,0.13264 0.122767,0 0.228247,-0.0307 0.316795,-0.0921 0.08819,-0.0614 0.142522,-0.12629 0.162277,-0.19438 h 0.534812 c -0.08537,0.26493 -0.216606,0.45473 -0.393348,0.56868 -0.176741,0.1143 -0.390877,0.17109 -0.641702,0.17109 -0.17392,0 -0.330906,-0.0275 -0.470606,-0.0832 -0.1397,-0.0557 -0.257881,-0.13476 -0.354894,-0.23742 -0.09737,-0.10266 -0.171803,-0.22543 -0.22472,-0.36795 -0.05256,-0.14252 -0.07902,-0.29951 -0.07902,-0.4706 0,-0.1651 0.02716,-0.31927 0.08114,-0.46179 0.05433,-0.14287 0.131233,-0.26599 0.231069,-0.37042 0.09984,-0.10371 0.218722,-0.18591 0.357364,-0.24553 0.138289,-0.06 0.291395,-0.09 0.45967,-0.09 0.188383,0 0.352072,0.0363 0.492125,0.10901 0.1397,0.0727 0.254352,0.17039 0.343958,0.29281 0.08996,0.12312 0.154869,0.26282 0.194733,0.41945 0.04022,0.15698 0.05433,0.32103 0.04304,0.49212 h -1.595614 c 0.0085,0.1965 0.05821,0.33938 0.149578,0.42757 m 0.686506,-1.16346 c -0.07267,-0.0801 -0.183092,-0.11959 -0.331612,-0.11959 -0.09666,0 -0.177447,0.0162 -0.241652,0.049 -0.06385,0.0328 -0.115359,0.0734 -0.153811,0.12171 -0.03845,0.0487 -0.06562,0.0998 -0.08149,0.15417 -0.01552,0.054 -0.0247,0.10265 -0.02752,0.14534 h 0.988131 c -0.02858,-0.15381 -0.07938,-0.27093 -0.152047,-0.35066 m -0.207434,-1.66405 -0.453319,0.75706 h 0.423333 l 0.697442,-0.75706 z" style="fill:#40c0d8;fill-opacity:1;fill-rule:nonzero;stroke:none;stroke-width:0.352778" id="path985"/>
        </g>
      </g>
    </g>
  </g>
</svg>